<?xml version="1.0" encoding="utf-8"?>
<!-- Generator: Adobe Illustrator 19.1.0, SVG Export Plug-In . SVG Version: 6.00 Build 0)  -->
<svg version="1.1" id="Layer_1" xmlns="http://www.w3.org/2000/svg" xmlns:xlink="http://www.w3.org/1999/xlink" x="0px" y="0px"
	 viewBox="0 0 600 600" style="enable-background:new 0 0 600 600;" xml:space="preserve">
<style type="text/css">
	.st0{fill:none;stroke:#000000;stroke-miterlimit:10;}
</style>
<path class="st0" d="M528.5,567H71.5c-4.7,0-8.5-3.8-8.5-8.5V41.5c0-4.7,3.8-8.5,8.5-8.5h456.9c4.7,0,8.5,3.8,8.5,8.5v516.9
	C537,563.2,533.2,567,528.5,567z"/>
<circle class="st0" cx="143" cy="236" r="36"/>
<circle class="st0" cx="298.5" cy="236" r="36"/>
<circle class="st0" cx="454" cy="236" r="36"/>
<path class="st0" d="M240.9,480H114.1c-3.9,0-7.1-3.2-7.1-7.1V348.1c0-3.9,3.2-7.1,7.1-7.1h126.8c3.9,0,7.1,3.2,7.1,7.1v124.8
	C248,476.8,244.8,480,240.9,480z"/>
<path class="st0" d="M436,357H300.5c-1.1,0-2-0.9-2-2v-12c0-1.1,0.9-2,2-2H436c1.1,0,2,0.9,2,2v12C438,356.1,437.1,357,436,357z"/>
<path class="st0" d="M336.2,145.6H114.9c-4.4,0-7.9-3.6-7.9-7.9v-33.3c0-4.4,3.6-7.9,7.9-7.9h221.3c4.4,0,7.9,3.6,7.9,7.9v33.3
	C344.1,142.1,340.6,145.6,336.2,145.6z"/>
<path class="st0" d="M244.5,539.7H109c-1.1,0-2-0.9-2-2v-12c0-1.1,0.9-2,2-2h135.5c1.1,0,2,0.9,2,2v12
	C246.5,538.8,245.6,539.7,244.5,539.7z"/>
<path class="st0" d="M488,386.9H300.5c-1.1,0-2-0.9-2-2l0,0c0-1.1,0.9-2,2-2H488c1.1,0,2,0.9,2,2l0,0C490,386,489.1,386.9,488,386.9
	z"/>
<path class="st0" d="M488,413.5H300.5c-1.1,0-2-0.9-2-2l0,0c0-1.1,0.9-2,2-2H488c1.1,0,2,0.9,2,2l0,0
	C490,412.6,489.1,413.5,488,413.5z"/>
<path class="st0" d="M488,426.8H300.5c-1.1,0-2-0.9-2-2l0,0c0-1.1,0.9-2,2-2H488c1.1,0,2,0.9,2,2l0,0
	C490,425.9,489.1,426.8,488,426.8z"/>
<path class="st0" d="M488,440.1H300.5c-1.1,0-2-0.9-2-2l0,0c0-1.1,0.9-2,2-2H488c1.1,0,2,0.9,2,2l0,0
	C490,439.2,489.1,440.1,488,440.1z"/>
<path class="st0" d="M488,453.4H300.5c-1.1,0-2-0.9-2-2l0,0c0-1.1,0.9-2,2-2H488c1.1,0,2,0.9,2,2l0,0
	C490,452.5,489.1,453.4,488,453.4z"/>
<path class="st0" d="M488,466.7H300.5c-1.1,0-2-0.9-2-2l0,0c0-1.1,0.9-2,2-2H488c1.1,0,2,0.9,2,2l0,0
	C490,465.8,489.1,466.7,488,466.7z"/>
<path class="st0" d="M488,480H300.5c-1.1,0-2-0.9-2-2l0,0c0-1.1,0.9-2,2-2H488c1.1,0,2,0.9,2,2l0,0C490,479.1,489.1,480,488,480z"/>
<path class="st0" d="M488,400.2H300.5c-1.1,0-2-0.9-2-2l0,0c0-1.1,0.9-2,2-2H488c1.1,0,2,0.9,2,2l0,0
	C490,399.3,489.1,400.2,488,400.2z"/>
<path class="st0" d="M298.5,567v-6.3v-30.8c0-3.5,2.8-6.3,6.3-6.3h179c3.5,0,6.3,2.8,6.3,6.3v30.8v6.3"/>
<line class="st0" x1="63" y1="64.5" x2="537" y2="64.5"/>
</svg>
